<svg xmlns="http://www.w3.org/2000/svg" width="607" height="131.5" viewBox="0 0 607 131.5">
  <g id="Group_90" data-name="Group 90" transform="translate(-1089 -1085)">
    <g id="Group_18" data-name="Group 18" transform="translate(18 -53.386)">
      <g id="Group_16" data-name="Group 16" transform="translate(1089 1232.5)">
        <line id="Line_2" data-name="Line 2" x2="589" transform="translate(0 36.386)" fill="none" stroke="#000" stroke-width="2"/>
        <g id="Rectangle_19" data-name="Rectangle 19" transform="translate(0 -0.114)" fill="rgba(255,255,255,0)" stroke="rgba(112,112,112,0)" stroke-width="1">
          <rect width="589" height="36" stroke="none"/>
          <rect x="0.5" y="0.5" width="588" height="35" fill="none"/>
        </g>
        <g id="Ellipse_1" data-name="Ellipse 1" transform="translate(19 11.886)" stroke="#707070" stroke-width="1">
          <circle cx="7" cy="7" r="7" stroke="none"/>
          <circle cx="7" cy="7" r="6.5" fill="none"/>
        </g>
        <g id="Ellipse_2" data-name="Ellipse 2" transform="translate(19 3.886)" stroke="#707070" stroke-width="1">
          <circle cx="7" cy="7" r="7" stroke="none"/>
          <circle cx="7" cy="7" r="6.5" fill="none"/>
        </g>
        <text id="Water_resistant_" data-name="Water resistant " transform="matrix(1, 0, 0, -1, 49, 11.886)" fill="#4f4848" font-size="20" font-family="Montserrat-Medium, Montserrat" font-weight="500"><tspan x="0" y="0">Water resistant </tspan></text>
        <text id="Wind_resistant_" data-name="Wind resistant " transform="matrix(1, 0, 0, -1, 49, 14.886)" fill="#4f4848" font-size="20" font-family="Montserrat-Medium, Montserrat" font-weight="500"><tspan x="0" y="0">Wind resistant </tspan></text>
      </g>
    </g>
    <g id="Group_20" data-name="Group 20" transform="translate(18 -17)">
      <g id="Rectangle_20" data-name="Rectangle 20" transform="translate(1071 1102)" fill="rgba(255,255,255,0.98)" stroke="rgba(112,112,112,0)" stroke-width="1">
        <rect width="603" height="131" stroke="none"/>
        <rect x="0.5" y="0.5" width="602" height="130" fill="none"/>
      </g>
      <text id="DESCRIPTION" transform="translate(1091 1176)" stroke="#272727" stroke-width="1" font-size="25" font-family="Montserrat-Medium, Montserrat" font-weight="500"><tspan x="0" y="0">DESCRIPTION</tspan></text>
      <g id="Group_3" data-name="Group 3" transform="translate(1611.209 1218.094) rotate(-135)">
        <g id="Union_1" data-name="Union 1" transform="translate(14.849 13.435)">
          <path d="M0,43.2V0H44.75V3.734H3.868V43.2Z" stroke="none"/>
          <path d="M 3.868419408798218 43.1977424621582 L 9.345092621515505e-06 43.1977424621582 L -6.549072395500843e-07 3.138427700832835e-06 L 44.75043869018555 1.313842767558526e-05 L 44.75043869018555 3.734203100204468 L 3.868419408798218 3.734193086624146 L 3.868419408798218 43.1977424621582 Z" stroke="none" fill="rgba(255,255,255,0)"/>
        </g>
      </g>
    </g>
  </g>
</svg>
